<svg width="18" height="23" viewBox="0 0 18 23" fill="none" xmlns="http://www.w3.org/2000/svg">
<path d="M9 0C7.97185 0 7.24862 0.760964 6.88583 1.7037H4.90909H4.09091H0V23H18V1.7037H13.9091H13.0909H11.1142C10.7514 0.760964 10.0281 0 9 0ZM9 1.7037C9.4623 1.7037 9.81818 2.07423 9.81818 2.55556V3.40741H10.6364H12.2727V5.11111H5.72727V3.40741H8.18182V2.55556C8.18182 2.07423 8.5377 1.7037 9 1.7037ZM1.63636 3.40741H4.09091V6.81482H13.9091V3.40741H16.3636V21.2963H1.63636V3.40741ZM6.30575 9.61994L5.14879 10.8245L7.84304 13.6296L5.14879 16.4348L6.30575 17.6393L9 14.8342L11.6942 17.6393L12.8512 16.4348L10.157 13.6296L12.8512 10.8245L11.6942 9.61994L9 12.4251L6.30575 9.61994Z" fill="#F38D04"/>
</svg>
