<svg width="24" height="23" viewBox="0 0 24 23" fill="none" xmlns="http://www.w3.org/2000/svg">
<path d="M12 0C10.3125 0 8.80168 0.870793 8.0012 2.24609C6.41827 1.82106 4.70914 2.22536 3.51563 3.36914C2.32212 4.51292 1.89664 6.15084 2.34375 7.66782C0.908654 8.4384 0 9.88281 0 11.5C0 13.1172 0.908654 14.5616 2.34375 15.3322C1.89664 16.8492 2.32212 18.4871 3.51563 19.6309C4.70914 20.7746 6.41466 21.1789 8.0012 20.7574C8.80168 22.1292 10.3125 23 12 23C13.6875 23 15.1983 22.1292 15.9988 20.7574C17.5853 21.1789 19.2909 20.7746 20.4844 19.6309C21.6779 18.4871 22.1034 16.8492 21.6599 15.3322C23.0913 14.5616 24 13.1172 24 11.5C24 9.88281 23.0913 8.4384 21.6599 7.66782C22.1034 6.15084 21.6779 4.51292 20.4844 3.36914C19.2909 2.22536 17.5853 1.82106 15.9988 2.24609C15.1983 0.870793 13.6875 0 12 0ZM12 1.76923C13.2115 1.76923 14.268 2.52254 14.6286 3.64213L14.9567 4.65805L15.9411 4.16046C17.0228 3.61794 18.3245 3.80108 19.1827 4.62004C20.0373 5.439 20.2284 6.68645 19.6587 7.72656L19.1394 8.66647L20.2031 8.98092C21.3678 9.32993 22.1538 10.3424 22.1538 11.5C22.1538 12.6576 21.3678 13.6701 20.1995 14.0191L19.1394 14.3335L19.6587 15.2734C20.2284 16.3136 20.0337 17.561 19.1791 18.38C18.3209 19.1989 17.0192 19.3821 15.9375 18.8395L14.9567 18.3419L14.6286 19.3613C14.2644 20.4775 13.2115 21.2308 12 21.2308C10.7885 21.2308 9.73558 20.4775 9.37139 19.3613L9.04327 18.3419L8.05889 18.8395C6.97716 19.3821 5.67548 19.1989 4.81731 18.38C3.96274 17.561 3.77164 16.3136 4.34135 15.2734L4.86058 14.3335L3.80048 14.0191C2.63221 13.6701 1.84615 12.6576 1.84615 11.5C1.84615 10.3424 2.63221 9.32993 3.80048 8.98092L4.86058 8.66647L4.34135 7.72656C3.77164 6.68645 3.96635 5.439 4.82091 4.62004C5.67548 3.80108 6.98077 3.61448 8.0625 4.16046L9.04327 4.65805L9.37139 3.64213C9.73558 2.52254 10.7885 1.76923 12 1.76923ZM11.8413 6.19576C11.03 6.23032 10.2548 6.51367 9.62741 7.02163C8.79087 7.69546 8.30769 8.68374 8.30769 9.73077H10.1538C10.1538 9.20553 10.3954 8.71139 10.8137 8.3762C11.2392 8.03065 11.78 7.89588 12.3425 7.98918C13.0673 8.11013 13.6875 8.70793 13.8173 9.40249C13.9976 10.3942 13.3413 11.1614 12.5986 11.4032C11.6899 11.7039 11.0769 12.5159 11.0769 13.4213V14.1538H12.9231V13.4213C12.9231 13.2692 13.0313 13.1345 13.1971 13.0792C14.9279 12.509 15.9519 10.8365 15.6346 9.09495C15.375 7.67127 14.149 6.49639 12.6635 6.2476C12.3894 6.20267 12.1154 6.1854 11.8413 6.19576ZM11.0769 15.0385V16.8077H12.9231V15.0385H11.0769Z" fill="#379550"/>
</svg>
